<svg version="1" xmlns="http://www.w3.org/2000/svg" width="692" height="692" viewBox="0 0 519.000000 519.000000"><path d="M242.5 41c-43.9 8.7-79.5 39.4-93.8 80.7-3.4 9.8-4.9 16.5-6.3 29.8-.5 4.5-.9 277-.5 297.9l.1 3.9 6.8-.6c33.9-3.1 61.2-27.9 67.6-61.4 1-5.5 1.3-19.5 1.3-60.2 0-29.2.2-53.3.5-53.6.3-.3 1.8 0 3.4.6 13.3 5.3 29.2 7.8 46.4 7.4 8-.2 15.9-.6 17.5-1 1.7-.3 5-1.1 7.5-1.6 47.7-10.3 85.8-50.9 94.4-100.4 1.4-7.9 1.4-33 .1-40.5-.8-4.7-4.3-18-5.4-20.5-.5-1.1-2.1-5.1-3.6-8.8-5.7-14.1-19-32.3-30.5-41.8-17.5-14.5-34.1-23.7-49.5-27.5-13-3.3-20-4.1-32.9-4.2-9.7 0-16.9.6-23.1 1.8zm35 75.5c20.6 5.4 35.3 24.3 35.3 45.5 0 9.2-1.1 14.2-5.1 21.9-9.9 19.6-33 30.1-54.2 24.6-23.1-6-38.6-29.5-35.2-53 2.6-17.6 17.3-34.3 34.6-39.1 6.4-1.7 17.6-1.7 24.6.1z"/></svg>